<svg xmlns="http://www.w3.org/2000/svg" version="1.1" xmlns:xlink="http://www.w3.org/1999/xlink" xmlns:svgjs="http://svgjs.dev/svgjs" width="1000" height="1000" viewBox="0 0 1000 1000"><rect width="1000" height="1000" fill="#000000"></rect><g transform="matrix(0.7,0,0,0.7,150.13683354192744,40.82210526315794)"><svg viewBox="0 0 188 247" data-background-color="#161618" preserveAspectRatio="xMidYMid meet" height="1313" width="1000" xmlns="http://www.w3.org/2000/svg" xmlns:xlink="http://www.w3.org/1999/xlink"><g id="tight-bounds" transform="matrix(1,0,0,1,-0.03674957983193394,-0.09999999999999432)"><svg viewBox="0 0 188.07349915966387 247.2" height="247.2" width="188.07349915966387"><g><svg></svg></g><g><svg viewBox="0 0 188.07349915966387 247.2" height="247.2" width="188.07349915966387"><g transform="matrix(1,0,0,1,0,47.215199999999996)"><svg viewBox="0 0 188.07349915966387 152.7696" height="152.7696" width="188.07349915966387"><g><svg viewBox="0 0 188.07349915966387 152.7696" height="152.7696" width="188.07349915966387"><g><svg viewBox="0 0 188.07349915966387 152.7696" height="152.7696" width="188.07349915966387"><g><svg viewBox="0 0 188.07349915966387 152.7696" height="152.7696" width="188.07349915966387"><g id="textblocktransform"><svg viewBox="0 0 188.07349915966387 152.7696" height="152.7696" width="188.07349915966387" id="textblock"><g><svg viewBox="0 0 188.07349915966387 152.7696" height="152.7696" width="188.07349915966387"><g transform="matrix(1,0,0,1,0,0)"><svg width="188.07349915966387" viewBox="1 -35.5 43.95000076293945 35.70000076293945" height="152.7696" data-palette-color="#ffffff"><path d="M7.25-0.05L3.15 0.1Q2.1 0.1 2.1-0.7L2.1-0.7Q2.1-1.35 3.6-1.4L3.6-1.4Q4.15-1.45 4.85-2.23 5.55-3 5.85-4.3 6.15-5.6 6.5-13.2 6.85-20.8 6.85-25.13 6.85-29.45 5.88-31.35 4.9-33.25 1.65-34L1.65-34Q1-34.15 1-34.75L1-34.75Q1-35.5 1.9-35.5L1.9-35.5 4.55-35.3 8.3-35.4Q9.25-35.4 9.5-34.7L9.5-34.7Q10.1-33.4 11.65-30.03 13.2-26.65 14.13-24.65 15.05-22.65 16.5-19.55 17.95-16.45 18.85-14.53 19.75-12.6 20.73-10.65 21.7-8.7 22.23-7.78 22.75-6.85 22.9-6.85 23.05-6.85 23.23-7.03 23.4-7.2 23.58-7.5 23.75-7.8 23.88-8.1 24-8.4 24.23-8.88 24.45-9.35 24.55-9.6L24.55-9.6 31-22.9Q33.65-28.3 34.55-30.45L34.55-30.45 35.7-32.95Q35.85-33.35 35.93-33.58 36-33.8 36.05-33.93 36.1-34.05 36.15-34.15 36.2-34.25 36.33-34.6 36.45-34.95 36.6-35.1L36.6-35.1Q37-35.5 38.05-35.5L38.05-35.5 42.35-35.4Q43.2-35.4 43.2-34.75L43.2-34.75Q43.2-34.25 42.88-34.02 42.55-33.8 41.43-33.65 40.3-33.5 39.8-32.4 39.3-31.3 39.3-26.38 39.3-21.45 39.6-15.98 39.9-10.5 39.9-9.1L39.9-9.1Q39.9-4.1 40.7-2.73 41.5-1.35 44.05-1.35L44.05-1.35Q44.4-1.35 44.68-1.1 44.95-0.85 44.95-0.65L44.95-0.65Q44.95 0.15 44.4 0.15L44.4 0.15 43.85 0.15 38.75-0.05Q38.75-0.05 33.55 0.2L33.55 0.2Q32.65 0.2 32.65-0.5L32.65-0.5Q32.65-1.25 34-1.4L34-1.4Q34.5-1.45 35.08-2.02 35.65-2.6 35.88-3.68 36.1-4.75 36.1-6.65 36.1-8.55 36.02-10.8 35.95-13.05 35.85-15.18 35.75-17.3 35.65-19.18 35.55-21.05 35.5-22.25L35.5-22.25 35.4-23.45Q35.4-25.6 34.95-25.6L34.95-25.6Q34.8-25.6 34.68-25.45 34.55-25.3 34.45-25.2 34.35-25.1 34.25-24.88 34.15-24.65 34.05-24.5 33.95-24.35 33.8-24.08 33.65-23.8 33.55-23.6L33.55-23.6 33.3-23.05Q33.1-22.7 33-22.45L33-22.45 26.05-8.4Q24.85-5.95 23.73-3.6 22.6-1.25 22.4-0.93 22.2-0.6 21.83-0.6 21.45-0.6 21.15-1.03 20.85-1.45 20.25-2.9 19.65-4.35 19.2-5.3L19.2-5.3Q10.05-23.9 9.85-24.18 9.65-24.45 9.5-24.45L9.5-24.45Q9.1-24.45 9.1-22.45L9.1-22.45 8.65-9.25 8.65-7Q8.65-2.9 10.3-1.95L10.3-1.95Q11.15-1.45 11.95-1.4L11.95-1.4Q13.2-1.25 13.2-0.73 13.2-0.2 13.05-0.03 12.9 0.15 12.45 0.15L12.45 0.15 7.25-0.05Z" opacity="1" transform="matrix(1,0,0,1,0,0)" fill="#ffffff" class="wordmark-text-0" data-fill-palette-color="primary" id="text-0"></path></svg></g></svg></g></svg></g></svg></g><g></g></svg></g></svg></g></svg></g><path d="M0 41.215L0 1 188.073 1 188.073 41.215 174.297 41.215 174.297 14.777 13.777 14.777 13.777 41.215 0 41.215M0 205.985L0 246.2 188.073 246.2 188.073 205.985 174.297 205.985 174.297 232.423 13.777 232.423 13.777 205.985 0 205.985" fill="#ffffff" stroke="transparent" data-fill-palette-color="primary"></path></svg></g><defs></defs></svg><rect width="188.07349915966387" height="247.2" fill="none" stroke="none" visibility="hidden"></rect></g></svg></g></svg>